# xmcd
# 
# Track frame offsets:
#     150
#     17100
#     29225
#     42112
#     60717
#     74965
#     89017
#     107145
#     121312
#     139200
#     153280
#     165634
#     178735
#     195300
#     208822
#     217237
#     228735
#     240334
# 
# Disc length: 3373
# 
# Revision: 0
# Processed by: cddbd v1.5.2PL0 Copyright (c) Steve Scherf et al.
# Submitted via: fre:ac v1.1beta1pre5
# 
DISCID=150d2b12
DTITLE=Charles Aznavour - Grandes Exitos [en castellano]
DYEAR=1995
DGENRE=Ballad
TTITLE0=Adios La Mama [La Mamma]
TTITLE1=Venecia Sin Ti [Que C'est Triste Venise]
TTITLE2=Apaga La Luz [Eteins La Lumière]
TTITLE3=Buen Anniversario [Bon Anniversaire]
TTITLE4=Con [Avec]
TTITLE5=Debes Saber [Il Faut Savoir]
TTITLE6=La Bohemia [La Bohème]
TTITLE7=Isabel [Isabelle]
TTITLE8=Morir De Amor [Mourir D'aimer]
TTITLE9=Te Espero [Je T'attends]
TTITLE10=Y Por Tanto [Et Pourtant]
TTITLE11=Idiota Te Quiero [Idiote, Je T'aime]
TTITLE12=Quien [Qui]
TTITLE13=Muy Poco Antes De La Guerra [Avant La Guerre]
TTITLE14=Quedate [Reste]
TTITLE15=Viví [J'ai Veçu]
TTITLE16=De Quererte Así [De T'avoir Aimée]
TTITLE17=C'est Fini
EXTD=YEAR: 1995
EXTT0=
EXTT1=
EXTT2=
EXTT3=
EXTT4=
EXTT5=
EXTT6=
EXTT7=
EXTT8=
EXTT9=
EXTT10=
EXTT11=
EXTT12=
EXTT13=
EXTT14=
EXTT15=
EXTT16=
EXTT17=
PLAYORDER=
